<svg xmlns="http://www.w3.org/2000/svg" width="171" height="216" fill="none"><path fill="#fff" d="M169.88.48H.48v214.43h169.4z"/><path fill="#F2F2F2" d="M105.66 72.17c-8.37 0-16.89-.34-24.86-2.56-7.82-2.17-15-6.38-21.4-11.25-4.19-3.17-8-5.69-13.44-5.31a24.84 24.84 0 0 0-14.52 5.67c-6.92 6.06-5.88 17.28-3.11 25.15 4.16 11.87 16.82 20.13 27.58 25.49 12.43 6.21 26.09 9.81 39.78 11.89 12 1.82 27.42 3.15 37.82-4.69 9.55-7.2 12.17-23.64 9.83-34.74a13.67 13.67 0 0 0-4.91-8.33c-6.71-4.9-16.72-1.63-24.26-1.46-2.8.06-5.65.12-8.51.14M85.18 140.7c20.274 0 36.71-1.025 36.71-2.29s-16.436-2.29-36.71-2.29-36.71 1.025-36.71 2.29 16.436 2.29 36.71 2.29"/><path fill="#CFCFCF" d="M130.99 40.98a.98.98 0 1 0 0-1.96.98.98 0 0 0 0 1.96M65.8 32.77a.98.98 0 1 0 0-1.96.98.98 0 0 0 0 1.96M77.65 126.08a.98.98 0 1 0 0-1.96.98.98 0 0 0 0 1.96"/><path stroke="#BABABA" stroke-linecap="round" stroke-linejoin="round" d="M103.81 28.11v4.3M101.66 30.26h4.3M33.75 46.21v4.3M31.59 48.36h4.31M36.99 106.12v4.31M34.83 108.27h4.31M125.84 62.03v4.3M123.69 64.18h4.3"/><path fill="#D2D2D2" d="m95.87 36.943-50.194 6.59a5.94 5.94 0 0 0-5.117 6.664l7.65 58.262a5.94 5.94 0 0 0 6.665 5.117l50.193-6.591a5.94 5.94 0 0 0 5.117-6.664l-7.651-58.261a5.94 5.94 0 0 0-6.664-5.117"/><path fill="#fff" stroke="#BABABA" stroke-linecap="round" stroke-linejoin="round" d="M110.49 45.49h-50.7a5.95 5.95 0 0 0-5.95 5.95v58.85a5.95 5.95 0 0 0 5.95 5.95h50.7a5.95 5.95 0 0 0 5.95-5.95V51.44a5.95 5.95 0 0 0-5.95-5.95"/><path fill="#fff" stroke="#BABABA" stroke-linecap="round" stroke-linejoin="round" d="m61.41 92.05 10.14-16.53a1.32 1.32 0 0 1 2.44 0l5.75 9.37a1.31 1.31 0 0 0 2.43 0l9.84-16a1.31 1.31 0 0 1 2.43 0l14.44 23.53z"/><path fill="#fff" stroke="#BABABA" stroke-linecap="round" stroke-linejoin="round" d="M81.63 73.3a3.19 3.19 0 1 0 0-6.38 3.19 3.19 0 0 0 0 6.38"/><path fill="#939090" d="M69.87 160.32v7.23h-.69a.7.7 0 0 1-.27-.05.7.7 0 0 1-.205-.18l-3.775-4.82q.03.33.03.61v4.44h-1.185v-7.23h.705q.085 0 .145.01.065.004.11.03a.3.3 0 0 1 .095.065 1 1 0 0 1 .1.11l3.79 4.84q-.015-.175-.025-.345a5 5 0 0 1-.01-.315v-4.395zm3.529 2.02q.57 0 1.035.185a2.24 2.24 0 0 1 1.315 1.355q.18.49.18 1.095 0 .61-.18 1.1t-.515.835q-.33.345-.8.53-.465.185-1.035.185-.575 0-1.045-.185a2.26 2.26 0 0 1-.805-.53 2.4 2.4 0 0 1-.515-.835 3.2 3.2 0 0 1-.18-1.1q0-.605.18-1.095.185-.49.515-.83.334-.34.805-.525a2.8 2.8 0 0 1 1.045-.185m0 4.335q.64 0 .945-.43.31-.43.31-1.26t-.31-1.265q-.305-.435-.945-.435-.65 0-.965.44-.31.435-.31 1.26t.31 1.26q.315.43.965.43m7.449.875h-1.35v-7.23h1.35zm1.345 0v-5.13h.755q.24 0 .315.225l.08.38q.136-.15.28-.275.15-.125.315-.215a1.66 1.66 0 0 1 .785-.195q.486 0 .795.265.315.26.47.695.12-.255.3-.435.18-.185.395-.3t.455-.17a2.2 2.2 0 0 1 .49-.055q.425 0 .755.13t.555.38q.226.25.34.61.12.36.12.825v3.265h-1.235v-3.265q0-.49-.215-.735-.215-.25-.63-.25a1 1 0 0 0-.355.065.9.9 0 0 0-.285.19.85.85 0 0 0-.19.305q-.07.185-.07.425v3.265h-1.24v-3.265q0-.514-.21-.75-.204-.235-.605-.235a1 1 0 0 0-.505.135 1.7 1.7 0 0 0-.43.36v3.755zm11.09-2.19a6.5 6.5 0 0 0-.9.095q-.367.065-.586.17a.8.8 0 0 0-.315.245.53.53 0 0 0-.095.305q0 .326.19.465.195.14.505.14.38 0 .655-.135a2 2 0 0 0 .545-.42zm-2.83-2.225q.885-.81 2.13-.81.45 0 .804.15.356.145.6.41.245.26.37.625.13.365.13.8v3.24h-.56a.6.6 0 0 1-.27-.05q-.094-.055-.15-.215l-.11-.37q-.195.175-.38.31-.184.13-.385.22-.2.09-.43.135a2.3 2.3 0 0 1-.5.05q-.324 0-.6-.085a1.3 1.3 0 0 1-.475-.265 1.2 1.2 0 0 1-.31-.435 1.5 1.5 0 0 1-.11-.605 1.18 1.18 0 0 1 .275-.755q.15-.175.385-.33t.575-.27q.345-.115.8-.185.455-.075 1.04-.09v-.3q0-.515-.22-.76-.22-.25-.635-.25-.3 0-.5.07-.195.07-.345.16l-.275.155a.5.5 0 0 1-.27.07.37.37 0 0 1-.22-.065.6.6 0 0 1-.145-.16zm7.072 1.725q.23 0 .4-.06a.8.8 0 0 0 .28-.175.7.7 0 0 0 .17-.265.9.9 0 0 0 .06-.34q0-.38-.23-.6-.225-.225-.68-.225-.454 0-.685.225-.225.22-.225.6 0 .18.055.335.06.155.17.27a.8.8 0 0 0 .285.175q.175.06.4.06m1.395 2.92q0-.15-.09-.245a.6.6 0 0 0-.245-.145 1.7 1.7 0 0 0-.365-.08 20.845 20.845 0 0 0-.92-.06 6 6 0 0 1-.48-.04 1.2 1.2 0 0 0-.335.27.56.56 0 0 0-.06.61q.07.12.215.205.15.085.385.13.236.05.575.05.345 0 .595-.055.25-.05.41-.145.165-.09.24-.22a.5.5 0 0 0 .075-.275m1.23-5.185v.46q0 .22-.265.27l-.46.085q.105.265.105.58a1.52 1.52 0 0 1-.575 1.21 2 2 0 0 1-.64.335 2.6 2.6 0 0 1-.79.115q-.15 0-.29-.015a4 4 0 0 1-.275-.04q-.24.145-.24.325 0 .155.14.23.146.07.38.1t.535.04q.3.004.615.03t.615.09q.3.06.535.195t.375.37q.145.23.145.595 0 .34-.17.66a1.7 1.7 0 0 1-.485.57q-.315.25-.78.4a3.3 3.3 0 0 1-1.05.155 4 4 0 0 1-1.01-.115 2.3 2.3 0 0 1-.715-.3 1.3 1.3 0 0 1-.425-.43 1 1 0 0 1-.14-.51q0-.36.215-.6a1.5 1.5 0 0 1 .6-.39.86.86 0 0 1-.325-.28.8.8 0 0 1-.12-.46q0-.115.04-.235a1.1 1.1 0 0 1 .125-.245 1.396 1.396 0 0 1 .505-.42 1.64 1.64 0 0 1-.615-.56 1.5 1.5 0 0 1-.22-.82q0-.38.15-.685.155-.31.425-.525.276-.22.645-.335.375-.115.815-.115.33 0 .62.07.29.065.53.195zm4.001 1.8q0-.24-.07-.45a1.1 1.1 0 0 0-.2-.375.9.9 0 0 0-.345-.25 1.1 1.1 0 0 0-.48-.095q-.536 0-.845.305-.306.305-.39.865zm-2.355.745q.03.395.14.685.11.285.29.475.18.185.425.28.25.09.55.09t.515-.07q.22-.07.38-.155.165-.085.285-.155a.5.5 0 0 1 .24-.07q.155 0 .23.115l.355.45q-.205.24-.46.405-.256.16-.535.26a3 3 0 0 1-.565.135q-.285.04-.555.04-.536 0-.995-.175a2.3 2.3 0 0 1-.8-.525 2.5 2.5 0 0 1-.535-.86 3.4 3.4 0 0 1-.195-1.19q0-.525.17-.985.17-.465.485-.805.32-.345.775-.545.459-.2 1.035-.2.484 0 .895.155.41.155.705.455.294.295.46.73.17.43.17.985 0 .28-.06.38-.06.095-.23.095z"/><path fill="#A0A0A0" d="M51.033 175.639v5.091h-.596l-2.774-3.997h-.05v3.997h-.617v-5.091h.597l2.784 4.007h.05v-4.007zm2.706 5.171q-.518 0-.908-.247a1.67 1.67 0 0 1-.606-.688 2.3 2.3 0 0 1-.217-1.034q0-.597.217-1.042.218-.444.606-.691.39-.246.907-.246.518 0 .905.246.39.247.607.691.219.445.219 1.042 0 .591-.22 1.034a1.65 1.65 0 0 1-.606.688q-.388.247-.904.247m0-.527q.392 0 .646-.202.253-.202.375-.529a2 2 0 0 0 .122-.711q0-.382-.122-.714a1.2 1.2 0 0 0-.375-.534q-.255-.204-.646-.204-.393 0-.647.204-.253.204-.375.534a2 2 0 0 0-.122.714q0 .382.122.711.122.327.375.529.255.201.647.202m4.594 1.879v-5.25h.567v.606h.07q.063-.099.178-.253.118-.157.333-.279.219-.123.592-.124.482 0 .85.241.368.242.574.684.207.442.207 1.044 0 .606-.207 1.051a1.63 1.63 0 0 1-.572.686 1.5 1.5 0 0 1-.842.242q-.368 0-.59-.122a1.1 1.1 0 0 1-.34-.281 4 4 0 0 1-.184-.264h-.05v2.019zm.577-3.341q0 .432.126.763.127.328.37.515a.97.97 0 0 0 .597.184q.369 0 .614-.194.249-.197.373-.527.127-.333.127-.741 0-.404-.124-.726a1.1 1.1 0 0 0-.37-.515.98.98 0 0 0-.62-.191.98.98 0 0 0-.601.182 1.1 1.1 0 0 0-.368.502 2.1 2.1 0 0 0-.124.748m3.689 1.909v-3.818h.566v.577h.04a.9.9 0 0 1 .378-.46 1.1 1.1 0 0 1 .616-.177 5 5 0 0 1 .308.01v.597a2 2 0 0 0-.136-.023 1.4 1.4 0 0 0-.221-.017q-.279 0-.498.117a.855.855 0 0 0-.467.778v2.416zm4.039.08q-.517 0-.907-.247a1.67 1.67 0 0 1-.607-.688 2.3 2.3 0 0 1-.216-1.034q0-.597.216-1.042.219-.444.607-.691.39-.246.907-.246t.905.246q.39.247.606.691.219.445.219 1.042 0 .591-.219 1.034a1.65 1.65 0 0 1-.606.688q-.388.247-.905.247m0-.527q.393 0 .646-.202.254-.202.375-.529a2 2 0 0 0 .122-.711q0-.382-.122-.714a1.2 1.2 0 0 0-.375-.534q-.253-.204-.646-.204t-.646.204q-.255.204-.376.534a2 2 0 0 0-.122.714q0 .382.122.711.122.327.376.529.253.201.646.202m2.625-3.371h.587v4.096q0 .354-.122.612a.88.88 0 0 1-.363.4q-.24.142-.609.142h-.119v-.547h.109q.27 0 .393-.159.124-.157.124-.448zm.289-.637a.42.42 0 0 1-.296-.116.38.38 0 0 1-.122-.281q0-.165.122-.281a.42.42 0 0 1 .296-.117q.171 0 .293.117a.37.37 0 0 1 .124.281.37.37 0 0 1-.124.281.4.4 0 0 1-.293.116m2.973 4.535a1.8 1.8 0 0 1-.952-.244 1.64 1.64 0 0 1-.614-.686 2.34 2.34 0 0 1-.213-1.029q0-.587.213-1.034.217-.45.602-.701.387-.254.905-.254.298 0 .589.1.29.1.53.323.238.221.38.586.141.366.141.9v.249h-2.943v-.507h2.347q0-.324-.13-.577a.98.98 0 0 0-.914-.547q-.35 0-.607.174-.253.172-.39.448a1.3 1.3 0 0 0-.137.591v.338q0 .433.15.734.15.297.42.454.267.155.623.155.232 0 .418-.065a.9.9 0 0 0 .326-.199.9.9 0 0 0 .211-.333l.567.159q-.09.288-.301.507-.21.216-.522.338-.31.12-.699.12m4.025 0q-.537 0-.925-.254a1.65 1.65 0 0 1-.596-.699 2.4 2.4 0 0 1-.21-1.016q0-.582.215-1.027.216-.447.601-.698.388-.254.905-.254.402 0 .726.149.323.15.53.418.206.269.255.626h-.586a.9.9 0 0 0-.299-.462q-.228-.204-.616-.204-.344 0-.602.179-.256.177-.4.5a1.85 1.85 0 0 0-.142.753q0 .442.14.771.141.327.397.509.26.182.607.182.228 0 .415-.08a.85.85 0 0 0 .5-.587h.586a1.35 1.35 0 0 1-.76 1.037 1.7 1.7 0 0 1-.741.157m4.02-3.898v.497h-1.98v-.497zm-1.402-.915h.586v3.639q0 .249.072.373.075.122.19.164.117.04.245.04a1 1 0 0 0 .16-.01l.099-.02.12.527a1.261 1.261 0 0 1-.925-.037.97.97 0 0 1-.393-.326.94.94 0 0 1-.154-.552zm4.253 4.733v-3.818h.586v3.818zm.298-4.455a.42.42 0 0 1-.296-.116.38.38 0 0 1-.122-.281q0-.165.122-.281a.42.42 0 0 1 .296-.117q.171 0 .293.117a.37.37 0 0 1 .125.281.37.37 0 0 1-.125.281.4.4 0 0 1-.293.116m1.363 4.455v-3.818h.567v.596h.05a.96.96 0 0 1 .385-.474q.266-.172.638-.172.378 0 .63.172.252.169.395.474h.04q.146-.295.44-.469.293-.177.703-.177.511 0 .838.321.325.317.325.992v2.555h-.586v-2.555q0-.423-.232-.604a.86.86 0 0 0-.544-.182q-.402 0-.624.244a.87.87 0 0 0-.221.611v2.486h-.597v-2.615a.69.69 0 0 0-.211-.525.76.76 0 0 0-.544-.201.8.8 0 0 0-.428.122.9.9 0 0 0-.318.338 1 1 0 0 0-.12.495v2.386zm7.207.089q-.363 0-.658-.136a1.13 1.13 0 0 1-.47-.4 1.13 1.13 0 0 1-.174-.637q0-.328.13-.532a.9.9 0 0 1 .345-.323q.216-.117.477-.174.263-.06.53-.094.347-.045.564-.068a.8.8 0 0 0 .318-.082q.102-.057.102-.198v-.02q0-.369-.202-.572-.198-.204-.604-.204-.42 0-.658.184-.24.184-.336.393l-.557-.199q.15-.348.398-.542.251-.197.547-.273.298-.08.587-.08.183 0 .422.045.24.042.465.176.226.135.375.406.15.27.15.725v2.516h-.587v-.517h-.03q-.06.124-.199.266a1.2 1.2 0 0 1-.37.241 1.4 1.4 0 0 1-.565.099m.09-.527q.348 0 .587-.136a.93.93 0 0 0 .487-.808v-.537q-.038.045-.164.082a3 3 0 0 1-.289.062 11 11 0 0 1-.561.075 2.2 2.2 0 0 0-.428.097.73.73 0 0 0-.318.196.5.5 0 0 0-.12.353q0 .306.227.462.228.154.579.154m4.272 1.949q-.425 0-.73-.109a1.6 1.6 0 0 1-.51-.283 1.6 1.6 0 0 1-.32-.373l.467-.328q.08.104.201.238.121.137.333.236.214.102.56.102.462 0 .763-.223.3-.225.3-.701v-.776h-.05q-.064.105-.183.259-.117.151-.338.271-.22.116-.592.116a1.6 1.6 0 0 1-.83-.218 1.53 1.53 0 0 1-.58-.637q-.21-.417-.21-1.014 0-.587.206-1.022.205-.437.574-.676.367-.241.85-.241.373 0 .591.124.221.122.339.279.12.154.183.253h.06v-.606h.567v3.927q0 .492-.224.801a1.27 1.27 0 0 1-.596.455 2.3 2.3 0 0 1-.83.146m-.02-2.098q.354 0 .597-.161.244-.162.37-.465.127-.303.127-.726 0-.413-.124-.728a1.1 1.1 0 0 0-.368-.495 1 1 0 0 0-.602-.179 1 1 0 0 0-.621.189 1.15 1.15 0 0 0-.37.507 2 2 0 0 0-.122.706q0 .398.124.704.127.303.373.477.249.171.617.171m4.346.667q-.553 0-.952-.244a1.64 1.64 0 0 1-.614-.686 2.34 2.34 0 0 1-.214-1.029q0-.587.214-1.034.216-.45.601-.701.388-.254.905-.254.298 0 .589.1t.53.323q.238.221.38.586.141.366.142.9v.249h-2.944v-.507h2.347q0-.324-.129-.577a.98.98 0 0 0-.915-.547q-.35 0-.607.174a1.14 1.14 0 0 0-.39.448 1.3 1.3 0 0 0-.136.591v.338q0 .433.149.734.152.297.42.454.269.155.624.155.231 0 .417-.065a.9.9 0 0 0 .326-.199.9.9 0 0 0 .211-.333l.567.159q-.09.288-.301.507a1.5 1.5 0 0 1-.522.338q-.31.12-.698.12m5.178-3.043-.527.149a1 1 0 0 0-.147-.256.7.7 0 0 0-.259-.209.95.95 0 0 0-.42-.082q-.35 0-.584.162-.231.159-.231.405 0 .219.159.345.16.127.497.212l.567.139q.512.125.763.38a.9.9 0 0 1 .251.654.97.97 0 0 1-.189.587 1.25 1.25 0 0 1-.522.407q-.335.15-.78.15-.585 0-.967-.254a1.13 1.13 0 0 1-.485-.741l.557-.139q.08.309.301.462.223.154.584.154.41 0 .651-.174.244-.176.244-.422a.44.44 0 0 0-.14-.333q-.138-.136-.427-.204l-.636-.149q-.525-.124-.771-.385a.94.94 0 0 1-.244-.659q0-.323.182-.572.184-.249.499-.39a1.75 1.75 0 0 1 .721-.142q.567 0 .89.249.325.248.463.656m3.299 4.395a1.3 1.3 0 0 1-.428-.07l.149-.517q.215.055.378.04a.45.45 0 0 0 .291-.147q.13-.129.236-.42l.11-.298-1.412-3.838h.636l1.054 3.042h.04l1.054-3.042h.636l-1.621 4.375q-.11.295-.271.49-.16.195-.375.29-.211.095-.477.095m4.983-1.352q-.553 0-.952-.244a1.63 1.63 0 0 1-.614-.686 2.3 2.3 0 0 1-.214-1.029q0-.587.214-1.034.216-.45.601-.701.388-.254.905-.254.298 0 .589.1.29.1.53.323.238.221.38.586.141.366.142.9v.249h-2.944v-.507h2.347q0-.324-.129-.577a.98.98 0 0 0-.915-.547q-.35 0-.607.174a1.14 1.14 0 0 0-.39.448 1.3 1.3 0 0 0-.137.591v.338q0 .433.15.734.151.297.42.454.269.155.624.155.231 0 .417-.065a.9.9 0 0 0 .326-.199.9.9 0 0 0 .211-.333l.567.159q-.09.288-.301.507a1.5 1.5 0 0 1-.522.338q-.31.12-.698.12m4.133-3.898v.497h-1.978v-.497zm-1.401-.915h.586v3.639q0 .249.072.373.075.122.189.164.117.04.246.04a1 1 0 0 0 .159-.01l.1-.02.119.527q-.06.022-.166.045a1.27 1.27 0 0 1-.759-.082.96.96 0 0 1-.392-.326.93.93 0 0 1-.154-.552z"/></svg>
