<svg width="171" height="216" viewBox="0 0 171 216" fill="none" xmlns="http://www.w3.org/2000/svg">
<g clip-path="url(#clip0_1_1422)">
<path d="M170.38 0.480011H0.97998V214.91H170.38V0.480011Z" fill="white" stroke="#BABABA" stroke-width="0.95" stroke-miterlimit="10"/>
<path d="M106.16 72.17C97.7899 72.17 89.27 71.83 81.2999 69.61C73.4799 67.44 66.2999 63.23 59.8999 58.36C55.7099 55.19 51.8999 52.67 46.4599 53.05C41.1369 53.3331 36.0462 55.321 31.9399 58.72C25.0199 64.78 26.0599 76 28.8299 83.87C32.9899 95.74 45.6499 104 56.4099 109.36C68.84 115.57 82.5 119.17 96.1899 121.25C108.19 123.07 123.61 124.4 134.01 116.56C143.56 109.36 146.18 92.92 143.84 81.82C143.273 78.5379 141.527 75.5758 138.93 73.49C132.22 68.59 122.21 71.86 114.67 72.03C111.87 72.09 109.02 72.15 106.16 72.17Z" fill="#F2F2F2"/>
<path d="M85.68 140.7C105.954 140.7 122.39 139.675 122.39 138.41C122.39 137.145 105.954 136.12 85.68 136.12C65.4056 136.12 48.97 137.145 48.97 138.41C48.97 139.675 65.4056 140.7 85.68 140.7Z" fill="#F2F2F2"/>
<path d="M131.49 40.98C132.031 40.98 132.47 40.5412 132.47 40C132.47 39.4587 132.031 39.02 131.49 39.02C130.949 39.02 130.51 39.4587 130.51 40C130.51 40.5412 130.949 40.98 131.49 40.98Z" fill="#CFCFCF"/>
<path d="M66.3001 32.77C66.8413 32.77 67.2801 32.3312 67.2801 31.79C67.2801 31.2488 66.8413 30.81 66.3001 30.81C65.7588 30.81 65.3201 31.2488 65.3201 31.79C65.3201 32.3312 65.7588 32.77 66.3001 32.77Z" fill="#CFCFCF"/>
<path d="M78.1499 126.08C78.6912 126.08 79.1299 125.641 79.1299 125.1C79.1299 124.559 78.6912 124.12 78.1499 124.12C77.6087 124.12 77.1699 124.559 77.1699 125.1C77.1699 125.641 77.6087 126.08 78.1499 126.08Z" fill="#CFCFCF"/>
<path d="M104.31 28.11V32.41" stroke="#BABABA" stroke-linecap="round" stroke-linejoin="round"/>
<path d="M102.16 30.26H106.46" stroke="#BABABA" stroke-linecap="round" stroke-linejoin="round"/>
<path d="M34.25 46.21V50.51" stroke="#BABABA" stroke-linecap="round" stroke-linejoin="round"/>
<path d="M32.0901 48.36H36.4001" stroke="#BABABA" stroke-linecap="round" stroke-linejoin="round"/>
<path d="M37.49 106.12V110.43" stroke="#BABABA" stroke-linecap="round" stroke-linejoin="round"/>
<path d="M35.3301 108.27H39.6401" stroke="#BABABA" stroke-linecap="round" stroke-linejoin="round"/>
<path d="M126.34 62.03V66.33" stroke="#BABABA" stroke-linecap="round" stroke-linejoin="round"/>
<path d="M124.19 64.18H128.49" stroke="#BABABA" stroke-linecap="round" stroke-linejoin="round"/>
<path d="M96.3694 36.9425L46.1764 43.5335C42.9232 43.9607 40.6322 46.9443 41.0594 50.1975L48.7099 108.459C49.1371 111.712 52.1207 114.003 55.3739 113.576L105.567 106.985C108.82 106.558 111.111 103.574 110.684 100.321L103.033 42.0595C102.606 38.8063 99.6226 36.5153 96.3694 36.9425Z" fill="#D2D2D2"/>
<path d="M110.99 45.49H60.2901C57.004 45.49 54.3401 48.1539 54.3401 51.44V110.29C54.3401 113.576 57.004 116.24 60.2901 116.24H110.99C114.276 116.24 116.94 113.576 116.94 110.29V51.44C116.94 48.1539 114.276 45.49 110.99 45.49Z" fill="white" stroke="#BABABA" stroke-linecap="round" stroke-linejoin="round"/>
<path d="M61.9099 92.05L72.0499 75.52C72.1497 75.2785 72.3189 75.0721 72.536 74.9268C72.7532 74.7815 73.0086 74.704 73.2699 74.704C73.5312 74.704 73.7866 74.7815 74.0038 74.9268C74.221 75.0721 74.3902 75.2785 74.4899 75.52L80.2399 84.89C80.3376 85.1323 80.5054 85.3398 80.7219 85.486C80.9384 85.6321 81.1937 85.7102 81.4549 85.7102C81.7161 85.7102 81.9714 85.6321 82.1879 85.486C82.4044 85.3398 82.5722 85.1323 82.6699 84.89L92.5099 68.89C92.6076 68.6477 92.7754 68.4402 92.9919 68.294C93.2084 68.1479 93.4637 68.0698 93.7249 68.0698C93.9861 68.0698 94.2414 68.1479 94.4579 68.294C94.6744 68.4402 94.8423 68.6477 94.9399 68.89L109.38 92.42L61.9099 92.05Z" fill="white" stroke="#BABABA" stroke-linecap="round" stroke-linejoin="round"/>
<path d="M82.1299 73.3C83.8917 73.3 85.3199 71.8718 85.3199 70.11C85.3199 68.3482 83.8917 66.92 82.1299 66.92C80.3681 66.92 78.9399 68.3482 78.9399 70.11C78.9399 71.8718 80.3681 73.3 82.1299 73.3Z" fill="white" stroke="#BABABA" stroke-linecap="round" stroke-linejoin="round"/>
<path d="M70.37 160.32V167.55H69.68C69.5733 167.55 69.4833 167.533 69.41 167.5C69.34 167.463 69.2716 167.403 69.205 167.32L65.43 162.5C65.45 162.72 65.46 162.923 65.46 163.11V167.55H64.275V160.32H64.98C65.0366 160.32 65.085 160.323 65.125 160.33C65.1683 160.333 65.205 160.343 65.235 160.36C65.2683 160.373 65.3 160.395 65.33 160.425C65.36 160.452 65.3933 160.488 65.43 160.535L69.22 165.375C69.21 165.258 69.2016 165.143 69.195 165.03C69.1883 164.917 69.185 164.812 69.185 164.715V160.32H70.37ZM73.8988 162.34C74.2788 162.34 74.6238 162.402 74.9338 162.525C75.2471 162.648 75.5138 162.823 75.7338 163.05C75.9571 163.277 76.1288 163.553 76.2488 163.88C76.3688 164.207 76.4288 164.572 76.4288 164.975C76.4288 165.382 76.3688 165.748 76.2488 166.075C76.1288 166.402 75.9571 166.68 75.7338 166.91C75.5138 167.14 75.2471 167.317 74.9338 167.44C74.6238 167.563 74.2788 167.625 73.8988 167.625C73.5155 167.625 73.1671 167.563 72.8538 167.44C72.5405 167.317 72.2721 167.14 72.0488 166.91C71.8288 166.68 71.6571 166.402 71.5338 166.075C71.4138 165.748 71.3538 165.382 71.3538 164.975C71.3538 164.572 71.4138 164.207 71.5338 163.88C71.6571 163.553 71.8288 163.277 72.0488 163.05C72.2721 162.823 72.5405 162.648 72.8538 162.525C73.1671 162.402 73.5155 162.34 73.8988 162.34ZM73.8988 166.675C74.3255 166.675 74.6405 166.532 74.8438 166.245C75.0505 165.958 75.1538 165.538 75.1538 164.985C75.1538 164.432 75.0505 164.01 74.8438 163.72C74.6405 163.43 74.3255 163.285 73.8988 163.285C73.4655 163.285 73.1438 163.432 72.9338 163.725C72.7271 164.015 72.6238 164.435 72.6238 164.985C72.6238 165.535 72.7271 165.955 72.9338 166.245C73.1438 166.532 73.4655 166.675 73.8988 166.675ZM81.3476 167.55H79.9976V160.32H81.3476V167.55ZM82.6933 167.55V162.42H83.4483C83.6083 162.42 83.7133 162.495 83.7633 162.645L83.8433 163.025C83.9333 162.925 84.0266 162.833 84.1233 162.75C84.2233 162.667 84.3283 162.595 84.4383 162.535C84.5516 162.475 84.6716 162.428 84.7983 162.395C84.9283 162.358 85.0699 162.34 85.2233 162.34C85.5466 162.34 85.8116 162.428 86.0183 162.605C86.2283 162.778 86.3849 163.01 86.4883 163.3C86.5683 163.13 86.6683 162.985 86.7883 162.865C86.9083 162.742 87.0399 162.642 87.1833 162.565C87.3266 162.488 87.4783 162.432 87.6383 162.395C87.8016 162.358 87.9649 162.34 88.1283 162.34C88.4116 162.34 88.6633 162.383 88.8833 162.47C89.1033 162.557 89.2883 162.683 89.4383 162.85C89.5883 163.017 89.7016 163.22 89.7783 163.46C89.8583 163.7 89.8983 163.975 89.8983 164.285V167.55H88.6633V164.285C88.6633 163.958 88.5916 163.713 88.4483 163.55C88.3049 163.383 88.0949 163.3 87.8183 163.3C87.6916 163.3 87.5733 163.322 87.4633 163.365C87.3566 163.408 87.2616 163.472 87.1783 163.555C87.0983 163.635 87.0349 163.737 86.9883 163.86C86.9416 163.983 86.9183 164.125 86.9183 164.285V167.55H85.6783V164.285C85.6783 163.942 85.6083 163.692 85.4683 163.535C85.3316 163.378 85.1299 163.3 84.8633 163.3C84.6833 163.3 84.5149 163.345 84.3583 163.435C84.2049 163.522 84.0616 163.642 83.9283 163.795V167.55H82.6933ZM93.7822 165.36C93.4255 165.377 93.1255 165.408 92.8822 165.455C92.6388 165.498 92.4438 165.555 92.2972 165.625C92.1505 165.695 92.0455 165.777 91.9822 165.87C91.9188 165.963 91.8872 166.065 91.8872 166.175C91.8872 166.392 91.9505 166.547 92.0772 166.64C92.2072 166.733 92.3755 166.78 92.5822 166.78C92.8355 166.78 93.0538 166.735 93.2372 166.645C93.4238 166.552 93.6055 166.412 93.7822 166.225V165.36ZM90.9522 163.135C91.5422 162.595 92.2522 162.325 93.0822 162.325C93.3822 162.325 93.6505 162.375 93.8872 162.475C94.1238 162.572 94.3238 162.708 94.4872 162.885C94.6505 163.058 94.7738 163.267 94.8572 163.51C94.9438 163.753 94.9872 164.02 94.9872 164.31V167.55H94.4272C94.3105 167.55 94.2205 167.533 94.1572 167.5C94.0938 167.463 94.0438 167.392 94.0072 167.285L93.8972 166.915C93.7672 167.032 93.6405 167.135 93.5172 167.225C93.3938 167.312 93.2655 167.385 93.1322 167.445C92.9988 167.505 92.8555 167.55 92.7022 167.58C92.5522 167.613 92.3855 167.63 92.2022 167.63C91.9855 167.63 91.7855 167.602 91.6022 167.545C91.4188 167.485 91.2605 167.397 91.1272 167.28C90.9938 167.163 90.8905 167.018 90.8172 166.845C90.7438 166.672 90.7072 166.47 90.7072 166.24C90.7072 166.11 90.7288 165.982 90.7722 165.855C90.8155 165.725 90.8855 165.602 90.9822 165.485C91.0822 165.368 91.2105 165.258 91.3672 165.155C91.5238 165.052 91.7155 164.962 91.9422 164.885C92.1722 164.808 92.4388 164.747 92.7422 164.7C93.0455 164.65 93.3922 164.62 93.7822 164.61V164.31C93.7822 163.967 93.7088 163.713 93.5622 163.55C93.4155 163.383 93.2038 163.3 92.9272 163.3C92.7272 163.3 92.5605 163.323 92.4272 163.37C92.2972 163.417 92.1822 163.47 92.0822 163.53C91.9822 163.587 91.8905 163.638 91.8072 163.685C91.7272 163.732 91.6372 163.755 91.5372 163.755C91.4505 163.755 91.3772 163.733 91.3172 163.69C91.2572 163.643 91.2088 163.59 91.1722 163.53L90.9522 163.135ZM98.0253 164.86C98.1786 164.86 98.312 164.84 98.4253 164.8C98.5386 164.757 98.6319 164.698 98.7053 164.625C98.7819 164.552 98.8386 164.463 98.8753 164.36C98.9153 164.257 98.9353 164.143 98.9353 164.02C98.9353 163.767 98.8586 163.567 98.7053 163.42C98.5553 163.27 98.3286 163.195 98.0253 163.195C97.7219 163.195 97.4936 163.27 97.3403 163.42C97.1903 163.567 97.1153 163.767 97.1153 164.02C97.1153 164.14 97.1336 164.252 97.1703 164.355C97.2103 164.458 97.2669 164.548 97.3403 164.625C97.4169 164.698 97.5119 164.757 97.6253 164.8C97.7419 164.84 97.8753 164.86 98.0253 164.86ZM99.4203 167.78C99.4203 167.68 99.3903 167.598 99.3303 167.535C99.2703 167.472 99.1886 167.423 99.0853 167.39C98.982 167.353 98.8603 167.327 98.7203 167.31C98.5836 167.293 98.437 167.282 98.2803 167.275C98.127 167.265 97.967 167.257 97.8003 167.25C97.6369 167.243 97.4769 167.23 97.3203 167.21C97.1836 167.287 97.0719 167.377 96.9853 167.48C96.9019 167.583 96.8603 167.703 96.8603 167.84C96.8603 167.93 96.8819 168.013 96.9253 168.09C96.9719 168.17 97.0436 168.238 97.1403 168.295C97.2403 168.352 97.3686 168.395 97.5253 168.425C97.682 168.458 97.8736 168.475 98.1003 168.475C98.3303 168.475 98.5286 168.457 98.6953 168.42C98.862 168.387 98.9986 168.338 99.1053 168.275C99.2153 168.215 99.2953 168.142 99.3453 168.055C99.3953 167.972 99.4203 167.88 99.4203 167.78ZM100.65 162.595V163.055C100.65 163.202 100.562 163.292 100.385 163.325L99.9253 163.41C99.9953 163.587 100.03 163.78 100.03 163.99C100.03 164.243 99.9786 164.473 99.8753 164.68C99.7753 164.883 99.6353 165.057 99.4553 165.2C99.2753 165.343 99.062 165.455 98.8153 165.535C98.5719 165.612 98.3086 165.65 98.0253 165.65C97.9253 165.65 97.8286 165.645 97.7353 165.635C97.6419 165.625 97.5503 165.612 97.4603 165.595C97.3003 165.692 97.2203 165.8 97.2203 165.92C97.2203 166.023 97.2669 166.1 97.3603 166.15C97.4569 166.197 97.5836 166.23 97.7403 166.25C97.8969 166.27 98.0753 166.283 98.2753 166.29C98.4753 166.293 98.6803 166.303 98.8903 166.32C99.1003 166.337 99.3053 166.367 99.5053 166.41C99.7053 166.45 99.8836 166.515 100.04 166.605C100.197 166.695 100.322 166.818 100.415 166.975C100.512 167.128 100.56 167.327 100.56 167.57C100.56 167.797 100.504 168.017 100.39 168.23C100.28 168.443 100.119 168.633 99.9053 168.8C99.6953 168.967 99.4353 169.1 99.1253 169.2C98.8186 169.303 98.4686 169.355 98.0753 169.355C97.6886 169.355 97.3519 169.317 97.0653 169.24C96.7786 169.167 96.5403 169.067 96.3503 168.94C96.1603 168.817 96.0186 168.673 95.9253 168.51C95.8319 168.347 95.7853 168.177 95.7853 168C95.7853 167.76 95.8569 167.56 96.0003 167.4C96.1469 167.237 96.3469 167.107 96.6003 167.01C96.4636 166.94 96.3553 166.847 96.2753 166.73C96.1953 166.613 96.1553 166.46 96.1553 166.27C96.1553 166.193 96.1686 166.115 96.1953 166.035C96.2253 165.952 96.2669 165.87 96.3203 165.79C96.3769 165.71 96.4469 165.635 96.5303 165.565C96.6136 165.492 96.7119 165.427 96.8253 165.37C96.5653 165.23 96.3603 165.043 96.2103 164.81C96.0636 164.577 95.9903 164.303 95.9903 163.99C95.9903 163.737 96.0403 163.508 96.1403 163.305C96.2436 163.098 96.3853 162.923 96.5653 162.78C96.7486 162.633 96.9636 162.522 97.2103 162.445C97.4603 162.368 97.7319 162.33 98.0253 162.33C98.2453 162.33 98.452 162.353 98.6453 162.4C98.8386 162.443 99.0153 162.508 99.1753 162.595H100.65ZM104.651 164.395C104.651 164.235 104.627 164.085 104.581 163.945C104.537 163.802 104.471 163.677 104.381 163.57C104.291 163.463 104.176 163.38 104.036 163.32C103.899 163.257 103.739 163.225 103.556 163.225C103.199 163.225 102.917 163.327 102.711 163.53C102.507 163.733 102.377 164.022 102.321 164.395H104.651ZM102.296 165.14C102.316 165.403 102.362 165.632 102.436 165.825C102.509 166.015 102.606 166.173 102.726 166.3C102.846 166.423 102.987 166.517 103.151 166.58C103.317 166.64 103.501 166.67 103.701 166.67C103.901 166.67 104.072 166.647 104.216 166.6C104.362 166.553 104.489 166.502 104.596 166.445C104.706 166.388 104.801 166.337 104.881 166.29C104.964 166.243 105.044 166.22 105.121 166.22C105.224 166.22 105.301 166.258 105.351 166.335L105.706 166.785C105.569 166.945 105.416 167.08 105.246 167.19C105.076 167.297 104.897 167.383 104.711 167.45C104.527 167.513 104.339 167.558 104.146 167.585C103.956 167.612 103.771 167.625 103.591 167.625C103.234 167.625 102.902 167.567 102.596 167.45C102.289 167.33 102.022 167.155 101.796 166.925C101.569 166.692 101.391 166.405 101.261 166.065C101.131 165.722 101.066 165.325 101.066 164.875C101.066 164.525 101.122 164.197 101.236 163.89C101.349 163.58 101.511 163.312 101.721 163.085C101.934 162.855 102.192 162.673 102.496 162.54C102.802 162.407 103.147 162.34 103.531 162.34C103.854 162.34 104.152 162.392 104.426 162.495C104.699 162.598 104.934 162.75 105.131 162.95C105.327 163.147 105.481 163.39 105.591 163.68C105.704 163.967 105.761 164.295 105.761 164.665C105.761 164.852 105.741 164.978 105.701 165.045C105.661 165.108 105.584 165.14 105.471 165.14H102.296Z" fill="#939090"/>
<path d="M51.5333 175.639V180.73H50.9367L48.1626 176.733H48.1128V180.73H47.4964V175.639H48.093L50.877 179.646H50.9268V175.639H51.5333ZM54.2385 180.81C53.8938 180.81 53.5913 180.728 53.3311 180.563C53.0726 180.399 52.8704 180.17 52.7246 179.875C52.5804 179.58 52.5083 179.235 52.5083 178.841C52.5083 178.443 52.5804 178.096 52.7246 177.799C52.8704 177.503 53.0726 177.272 53.3311 177.108C53.5913 176.944 53.8938 176.862 54.2385 176.862C54.5832 176.862 54.8848 176.944 55.1433 177.108C55.4035 177.272 55.6056 177.503 55.7498 177.799C55.8957 178.096 55.9686 178.443 55.9686 178.841C55.9686 179.235 55.8957 179.58 55.7498 179.875C55.6056 180.17 55.4035 180.399 55.1433 180.563C54.8848 180.728 54.5832 180.81 54.2385 180.81ZM54.2385 180.283C54.5003 180.283 54.7157 180.215 54.8848 180.081C55.0538 179.947 55.1789 179.77 55.2601 179.552C55.3413 179.333 55.3819 179.096 55.3819 178.841C55.3819 178.586 55.3413 178.348 55.2601 178.127C55.1789 177.907 55.0538 177.729 54.8848 177.593C54.7157 177.457 54.5003 177.389 54.2385 177.389C53.9766 177.389 53.7612 177.457 53.5922 177.593C53.4231 177.729 53.298 177.907 53.2168 178.127C53.1356 178.348 53.095 178.586 53.095 178.841C53.095 179.096 53.1356 179.333 53.2168 179.552C53.298 179.77 53.4231 179.947 53.5922 180.081C53.7612 180.215 53.9766 180.283 54.2385 180.283ZM58.8328 182.162V176.912H59.3996V177.518H59.4692C59.5123 177.452 59.5719 177.368 59.6482 177.265C59.7261 177.16 59.8371 177.068 59.9813 176.986C60.1271 176.904 60.3243 176.862 60.5729 176.862C60.8944 176.862 61.1778 176.942 61.423 177.103C61.6683 177.264 61.8597 177.492 61.9972 177.787C62.1348 178.082 62.2036 178.43 62.2036 178.831C62.2036 179.235 62.1348 179.586 61.9972 179.882C61.8597 180.177 61.6691 180.406 61.4255 180.568C61.1819 180.729 60.901 180.81 60.5828 180.81C60.3376 180.81 60.1412 180.769 59.9937 180.688C59.8462 180.605 59.7327 180.511 59.6531 180.407C59.5736 180.301 59.5123 180.213 59.4692 180.143H59.4195V182.162H58.8328ZM59.4095 178.821C59.4095 179.109 59.4518 179.364 59.5363 179.584C59.6208 179.803 59.7443 179.974 59.9067 180.099C60.0691 180.221 60.268 180.283 60.5033 180.283C60.7486 180.283 60.9532 180.218 61.1173 180.089C61.283 179.958 61.4073 179.782 61.4901 179.562C61.5747 179.34 61.6169 179.093 61.6169 178.821C61.6169 178.552 61.5755 178.31 61.4926 178.095C61.4114 177.878 61.288 177.706 61.1222 177.58C60.9582 177.453 60.7519 177.389 60.5033 177.389C60.2646 177.389 60.0641 177.45 59.9017 177.571C59.7393 177.69 59.6167 177.857 59.5338 178.073C59.451 178.286 59.4095 178.536 59.4095 178.821ZM63.0985 180.73V176.912H63.6652V177.489H63.705C63.7746 177.3 63.9005 177.146 64.0828 177.029C64.2651 176.911 64.4706 176.852 64.6993 176.852C64.7424 176.852 64.7963 176.853 64.8609 176.855C64.9255 176.856 64.9744 176.859 65.0075 176.862V177.459C64.9877 177.454 64.9421 177.446 64.8708 177.436C64.8012 177.425 64.7275 177.419 64.6496 177.419C64.464 177.419 64.2983 177.458 64.1524 177.536C64.0083 177.612 63.8939 177.718 63.8094 177.854C63.7265 177.988 63.6851 178.141 63.6851 178.314V180.73H63.0985ZM67.1379 180.81C66.7932 180.81 66.4907 180.728 66.2306 180.563C65.972 180.399 65.7699 180.17 65.624 179.875C65.4798 179.58 65.4078 179.235 65.4078 178.841C65.4078 178.443 65.4798 178.096 65.624 177.799C65.7699 177.503 65.972 177.272 66.2306 177.108C66.4907 176.944 66.7932 176.862 67.1379 176.862C67.4826 176.862 67.7842 176.944 68.0427 177.108C68.3029 177.272 68.5051 177.503 68.6492 177.799C68.7951 178.096 68.868 178.443 68.868 178.841C68.868 179.235 68.7951 179.58 68.6492 179.875C68.5051 180.17 68.3029 180.399 68.0427 180.563C67.7842 180.728 67.4826 180.81 67.1379 180.81ZM67.1379 180.283C67.3997 180.283 67.6151 180.215 67.7842 180.081C67.9532 179.947 68.0783 179.77 68.1595 179.552C68.2407 179.333 68.2813 179.096 68.2813 178.841C68.2813 178.586 68.2407 178.348 68.1595 178.127C68.0783 177.907 67.9532 177.729 67.7842 177.593C67.6151 177.457 67.3997 177.389 67.1379 177.389C66.876 177.389 66.6606 177.457 66.4916 177.593C66.3225 177.729 66.1974 177.907 66.1162 178.127C66.035 178.348 65.9944 178.586 65.9944 178.841C65.9944 179.096 66.035 179.333 66.1162 179.552C66.1974 179.77 66.3225 179.947 66.4916 180.081C66.6606 180.215 66.876 180.283 67.1379 180.283ZM69.7635 176.912H70.3501V181.008C70.3501 181.244 70.3095 181.448 70.2283 181.62C70.1488 181.792 70.0278 181.926 69.8654 182.02C69.7047 182.115 69.5017 182.162 69.2564 182.162C69.2365 182.162 69.2166 182.162 69.1967 182.162C69.1768 182.162 69.157 182.162 69.1371 182.162V181.615C69.157 181.615 69.1752 181.615 69.1918 181.615C69.2083 181.615 69.2266 181.615 69.2464 181.615C69.4254 181.615 69.5563 181.562 69.6392 181.456C69.7221 181.351 69.7635 181.202 69.7635 181.008V176.912ZM70.0518 176.275C69.9375 176.275 69.8389 176.237 69.756 176.159C69.6748 176.081 69.6342 175.987 69.6342 175.878C69.6342 175.768 69.6748 175.675 69.756 175.597C69.8389 175.519 69.9375 175.48 70.0518 175.48C70.1662 175.48 70.264 175.519 70.3452 175.597C70.428 175.675 70.4695 175.768 70.4695 175.878C70.4695 175.987 70.428 176.081 70.3452 176.159C70.264 176.237 70.1662 176.275 70.0518 176.275ZM73.0255 180.81C72.6576 180.81 72.3402 180.728 72.0734 180.566C71.8083 180.402 71.6036 180.173 71.4594 179.88C71.3169 179.585 71.2456 179.242 71.2456 178.851C71.2456 178.46 71.3169 178.115 71.4594 177.817C71.6036 177.517 71.8041 177.283 72.061 177.116C72.3195 176.947 72.6211 176.862 72.9658 176.862C73.1647 176.862 73.3611 176.895 73.555 176.962C73.7488 177.028 73.9253 177.136 74.0844 177.285C74.2435 177.432 74.3703 177.628 74.4648 177.871C74.5592 178.115 74.6064 178.415 74.6064 178.771V179.02H71.6633V178.513H74.0099C74.0099 178.297 73.9668 178.105 73.8806 177.936C73.7961 177.767 73.6751 177.634 73.5177 177.536C73.3619 177.438 73.1779 177.389 72.9658 177.389C72.7322 177.389 72.53 177.447 72.3593 177.563C72.1903 177.677 72.0602 177.827 71.969 178.011C71.8779 178.194 71.8323 178.392 71.8323 178.602V178.94C71.8323 179.229 71.882 179.473 71.9814 179.674C72.0825 179.872 72.2226 180.024 72.4015 180.128C72.5805 180.231 72.7885 180.283 73.0255 180.283C73.1796 180.283 73.3188 180.261 73.4431 180.218C73.569 180.173 73.6776 180.107 73.7687 180.019C73.8599 179.93 73.9303 179.819 73.98 179.686L74.5468 179.845C74.4871 180.037 74.3869 180.206 74.246 180.352C74.1051 180.496 73.9311 180.609 73.724 180.69C73.5168 180.77 73.284 180.81 73.0255 180.81ZM77.05 180.81C76.692 180.81 76.3838 180.725 76.1253 180.556C75.8667 180.387 75.6679 180.154 75.5287 179.857C75.3895 179.561 75.3199 179.222 75.3199 178.841C75.3199 178.453 75.3911 178.111 75.5336 177.814C75.6778 177.516 75.8783 177.283 76.1352 177.116C76.3937 176.947 76.6953 176.862 77.04 176.862C77.3085 176.862 77.5505 176.912 77.7659 177.011C77.9813 177.111 78.1578 177.25 78.2954 177.429C78.4329 177.608 78.5183 177.817 78.5514 178.055H77.9648C77.92 177.881 77.8206 177.727 77.6665 177.593C77.514 177.457 77.3085 177.389 77.05 177.389C76.8213 177.389 76.6208 177.449 76.4484 177.568C76.2777 177.686 76.1443 177.852 76.0482 178.068C75.9537 178.281 75.9065 178.533 75.9065 178.821C75.9065 179.116 75.9529 179.373 76.0457 179.592C76.1402 179.81 76.2728 179.98 76.4434 180.101C76.6158 180.222 76.818 180.283 77.05 180.283C77.2024 180.283 77.3408 180.256 77.4651 180.203C77.5894 180.15 77.6946 180.074 77.7808 179.974C77.867 179.875 77.9283 179.756 77.9648 179.616H78.5514C78.5183 179.842 78.4362 180.045 78.3053 180.225C78.176 180.404 78.0045 180.547 77.7907 180.653C77.5786 180.757 77.3317 180.81 77.05 180.81ZM81.0695 176.912V177.409H79.0908V176.912H81.0695ZM79.6675 175.997H80.2542V179.636C80.2542 179.802 80.2782 179.926 80.3263 180.009C80.376 180.09 80.439 180.145 80.5152 180.173C80.5931 180.2 80.6751 180.213 80.7613 180.213C80.8259 180.213 80.8789 180.21 80.9204 180.203C80.9618 180.195 80.9949 180.188 81.0198 180.183L81.1391 180.71C81.0993 180.725 81.0438 180.74 80.9726 180.755C80.9013 180.771 80.811 180.78 80.7016 180.78C80.5359 180.78 80.3735 180.744 80.2144 180.673C80.057 180.602 79.926 180.493 79.8216 180.347C79.7189 180.201 79.6675 180.017 79.6675 179.795V175.997ZM83.9207 180.73V176.912H84.5074V180.73H83.9207ZM84.219 176.275C84.1047 176.275 84.0061 176.237 83.9232 176.159C83.842 176.081 83.8014 175.987 83.8014 175.878C83.8014 175.768 83.842 175.675 83.9232 175.597C84.0061 175.519 84.1047 175.48 84.219 175.48C84.3334 175.48 84.4311 175.519 84.5123 175.597C84.5952 175.675 84.6366 175.768 84.6366 175.878C84.6366 175.987 84.5952 176.081 84.5123 176.159C84.4311 176.237 84.3334 176.275 84.219 176.275ZM85.5819 180.73V176.912H86.1486V177.508H86.1983C86.2779 177.305 86.4063 177.146 86.5836 177.034C86.7609 176.919 86.9739 176.862 87.2225 176.862C87.4744 176.862 87.684 176.919 87.8514 177.034C88.0204 177.146 88.1522 177.305 88.2466 177.508H88.2864C88.3842 177.311 88.5308 177.155 88.7264 177.039C88.9219 176.921 89.1564 176.862 89.4299 176.862C89.7712 176.862 90.0505 176.969 90.2676 177.183C90.4847 177.395 90.5932 177.725 90.5932 178.175V180.73H90.0066V178.175C90.0066 177.893 89.9295 177.692 89.7754 177.571C89.6213 177.45 89.4398 177.389 89.231 177.389C88.9625 177.389 88.7546 177.47 88.6071 177.633C88.4596 177.793 88.3858 177.997 88.3858 178.244V180.73H87.7892V178.115C87.7892 177.898 87.7188 177.723 87.5779 177.59C87.4371 177.456 87.2556 177.389 87.0336 177.389C86.8811 177.389 86.7386 177.43 86.606 177.511C86.4751 177.592 86.369 177.705 86.2878 177.849C86.2083 177.991 86.1685 178.156 86.1685 178.344V180.73H85.5819ZM92.7894 180.819C92.5475 180.819 92.3279 180.774 92.1307 180.683C91.9335 180.59 91.7769 180.457 91.6609 180.283C91.5449 180.107 91.4869 179.895 91.4869 179.646C91.4869 179.427 91.5299 179.25 91.6161 179.114C91.7023 178.977 91.8175 178.869 91.9616 178.791C92.1058 178.713 92.2649 178.655 92.4389 178.617C92.6146 178.577 92.7911 178.546 92.9684 178.523C93.2004 178.493 93.3885 178.47 93.5327 178.455C93.6785 178.439 93.7846 178.412 93.8509 178.373C93.9188 178.335 93.9528 178.269 93.9528 178.175V178.155C93.9528 177.909 93.8857 177.719 93.7514 177.583C93.6188 177.447 93.4175 177.379 93.1474 177.379C92.8673 177.379 92.6477 177.44 92.4886 177.563C92.3295 177.686 92.2177 177.817 92.1531 177.956L91.5962 177.757C91.6957 177.525 91.8282 177.344 91.994 177.215C92.1613 177.084 92.3436 176.993 92.5408 176.942C92.7397 176.889 92.9353 176.862 93.1275 176.862C93.2501 176.862 93.391 176.877 93.5501 176.907C93.7108 176.935 93.8658 176.994 94.0149 177.083C94.1657 177.173 94.2908 177.308 94.3903 177.489C94.4897 177.669 94.5394 177.911 94.5394 178.214V180.73H93.9528V180.213H93.9229C93.8832 180.296 93.8169 180.384 93.7241 180.479C93.6313 180.573 93.5078 180.654 93.3537 180.72C93.1996 180.786 93.0115 180.819 92.7894 180.819ZM92.8789 180.292C93.1109 180.292 93.3065 180.247 93.4656 180.156C93.6263 180.065 93.7473 179.947 93.8285 179.803C93.9113 179.659 93.9528 179.507 93.9528 179.348V178.811C93.9279 178.841 93.8732 178.868 93.7887 178.893C93.7058 178.916 93.6097 178.937 93.5004 178.955C93.3926 178.972 93.2874 178.987 93.1847 179C93.0836 179.011 93.0015 179.021 92.9386 179.03C92.7861 179.05 92.6436 179.082 92.511 179.127C92.3801 179.17 92.274 179.235 92.1928 179.323C92.1133 179.409 92.0735 179.527 92.0735 179.676C92.0735 179.88 92.1489 180.034 92.2997 180.138C92.4522 180.241 92.6452 180.292 92.8789 180.292ZM97.1514 182.241C96.868 182.241 96.6244 182.205 96.4205 182.132C96.2167 182.061 96.0468 181.966 95.911 181.849C95.7767 181.733 95.6698 181.608 95.5903 181.476L96.0576 181.148C96.1106 181.217 96.1778 181.297 96.259 181.386C96.3402 181.477 96.4512 181.556 96.5921 181.622C96.7346 181.69 96.921 181.724 97.1514 181.724C97.4596 181.724 97.714 181.65 97.9145 181.501C98.115 181.351 98.2153 181.118 98.2153 180.8V180.024H98.1656C98.1225 180.094 98.0612 180.18 97.9816 180.283C97.9037 180.384 97.791 180.474 97.6436 180.554C97.4977 180.631 97.3005 180.67 97.0519 180.67C96.7437 180.67 96.4669 180.597 96.2217 180.452C95.9781 180.306 95.785 180.094 95.6425 179.815C95.5016 179.537 95.4312 179.199 95.4312 178.801C95.4312 178.41 95.5 178.069 95.6375 177.779C95.7751 177.488 95.9665 177.262 96.2117 177.103C96.457 176.942 96.7404 176.862 97.0619 176.862C97.3105 176.862 97.5077 176.904 97.6535 176.986C97.801 177.068 97.9137 177.16 97.9916 177.265C98.0711 177.368 98.1324 177.452 98.1755 177.518H98.2352V176.912H98.8019V180.839C98.8019 181.167 98.7274 181.434 98.5782 181.64C98.4307 181.847 98.2319 181.999 97.9816 182.095C97.733 182.192 97.4563 182.241 97.1514 182.241ZM97.1315 180.143C97.3668 180.143 97.5657 180.089 97.7281 179.982C97.8905 179.874 98.0139 179.719 98.0985 179.517C98.183 179.315 98.2252 179.073 98.2252 178.791C98.2252 178.516 98.1838 178.273 98.1009 178.063C98.0181 177.852 97.8954 177.687 97.733 177.568C97.5706 177.449 97.3701 177.389 97.1315 177.389C96.8829 177.389 96.6758 177.452 96.51 177.578C96.346 177.704 96.2225 177.873 96.1396 178.085C96.0584 178.297 96.0178 178.533 96.0178 178.791C96.0178 179.056 96.0593 179.291 96.1421 179.495C96.2267 179.697 96.3509 179.856 96.515 179.972C96.6807 180.086 96.8862 180.143 97.1315 180.143ZM101.477 180.81C101.109 180.81 100.791 180.728 100.525 180.566C100.259 180.402 100.055 180.173 99.9106 179.88C99.7681 179.585 99.6968 179.242 99.6968 178.851C99.6968 178.46 99.7681 178.115 99.9106 177.817C100.055 177.517 100.255 177.283 100.512 177.116C100.771 176.947 101.072 176.862 101.417 176.862C101.616 176.862 101.812 176.895 102.006 176.962C102.2 177.028 102.377 177.136 102.536 177.285C102.695 177.432 102.821 177.628 102.916 177.871C103.01 178.115 103.058 178.415 103.058 178.771V179.02H100.114V178.513H102.461C102.461 178.297 102.418 178.105 102.332 177.936C102.247 177.767 102.126 177.634 101.969 177.536C101.813 177.438 101.629 177.389 101.417 177.389C101.183 177.389 100.981 177.447 100.81 177.563C100.641 177.677 100.511 177.827 100.42 178.011C100.329 178.194 100.283 178.392 100.283 178.602V178.94C100.283 179.229 100.333 179.473 100.433 179.674C100.534 179.872 100.674 180.024 100.853 180.128C101.032 180.231 101.24 180.283 101.477 180.283C101.631 180.283 101.77 180.261 101.894 180.218C102.02 180.173 102.129 180.107 102.22 180.019C102.311 179.93 102.381 179.819 102.431 179.686L102.998 179.845C102.938 180.037 102.838 180.206 102.697 180.352C102.556 180.496 102.382 180.609 102.175 180.69C101.968 180.77 101.735 180.81 101.477 180.81ZM106.655 177.767L106.128 177.916C106.094 177.828 106.046 177.743 105.981 177.66C105.918 177.576 105.832 177.506 105.722 177.451C105.613 177.397 105.473 177.369 105.302 177.369C105.069 177.369 104.874 177.423 104.718 177.531C104.564 177.637 104.487 177.772 104.487 177.936C104.487 178.082 104.54 178.197 104.646 178.281C104.752 178.366 104.918 178.436 105.143 178.493L105.71 178.632C106.051 178.715 106.306 178.842 106.473 179.012C106.64 179.181 106.724 179.399 106.724 179.666C106.724 179.885 106.661 180.08 106.535 180.253C106.411 180.425 106.237 180.561 106.013 180.66C105.79 180.76 105.529 180.81 105.233 180.81C104.843 180.81 104.521 180.725 104.266 180.556C104.011 180.387 103.849 180.14 103.781 179.815L104.338 179.676C104.391 179.882 104.491 180.036 104.639 180.138C104.788 180.241 104.982 180.292 105.223 180.292C105.496 180.292 105.713 180.234 105.874 180.118C106.036 180.001 106.118 179.86 106.118 179.696C106.118 179.563 106.071 179.452 105.978 179.363C105.886 179.272 105.743 179.204 105.551 179.159L104.915 179.01C104.565 178.927 104.308 178.799 104.144 178.625C103.982 178.449 103.9 178.229 103.9 177.966C103.9 177.75 103.961 177.56 104.082 177.394C104.204 177.228 104.371 177.098 104.581 177.004C104.794 176.909 105.034 176.862 105.302 176.862C105.68 176.862 105.977 176.945 106.192 177.111C106.409 177.276 106.563 177.495 106.655 177.767ZM109.954 182.162C109.854 182.162 109.766 182.154 109.688 182.137C109.61 182.122 109.556 182.107 109.526 182.092L109.675 181.575C109.818 181.612 109.944 181.625 110.053 181.615C110.163 181.605 110.26 181.556 110.344 181.468C110.43 181.382 110.509 181.242 110.58 181.048L110.69 180.75L109.278 176.912H109.914L110.968 179.954H111.008L112.062 176.912H112.698L111.077 181.287C111.004 181.484 110.914 181.647 110.806 181.777C110.699 181.907 110.574 182.004 110.431 182.067C110.29 182.13 110.131 182.162 109.954 182.162ZM114.937 180.81C114.569 180.81 114.251 180.728 113.985 180.566C113.719 180.402 113.515 180.173 113.371 179.88C113.228 179.585 113.157 179.242 113.157 178.851C113.157 178.46 113.228 178.115 113.371 177.817C113.515 177.517 113.715 177.283 113.972 177.116C114.231 176.947 114.532 176.862 114.877 176.862C115.076 176.862 115.272 176.895 115.466 176.962C115.66 177.028 115.836 177.136 115.996 177.285C116.155 177.432 116.281 177.628 116.376 177.871C116.47 178.115 116.518 178.415 116.518 178.771V179.02H113.574V178.513H115.921C115.921 178.297 115.878 178.105 115.792 177.936C115.707 177.767 115.586 177.634 115.429 177.536C115.273 177.438 115.089 177.389 114.877 177.389C114.643 177.389 114.441 177.447 114.27 177.563C114.101 177.677 113.971 177.827 113.88 178.011C113.789 178.194 113.743 178.392 113.743 178.602V178.94C113.743 179.229 113.793 179.473 113.893 179.674C113.994 179.872 114.134 180.024 114.313 180.128C114.492 180.231 114.7 180.283 114.937 180.283C115.091 180.283 115.23 180.261 115.354 180.218C115.48 180.173 115.589 180.107 115.68 180.019C115.771 179.93 115.841 179.819 115.891 179.686L116.458 179.845C116.398 180.037 116.298 180.206 116.157 180.352C116.016 180.496 115.842 180.609 115.635 180.69C115.428 180.77 115.195 180.81 114.937 180.81ZM119.07 176.912V177.409H117.092V176.912H119.07ZM117.669 175.997H118.255V179.636C118.255 179.802 118.279 179.926 118.327 180.009C118.377 180.09 118.44 180.145 118.516 180.173C118.594 180.2 118.676 180.213 118.762 180.213C118.827 180.213 118.88 180.21 118.921 180.203C118.963 180.195 118.996 180.188 119.021 180.183L119.14 180.71C119.1 180.725 119.045 180.74 118.974 180.755C118.902 180.771 118.812 180.78 118.703 180.78C118.537 180.78 118.374 180.744 118.215 180.673C118.058 180.602 117.927 180.493 117.823 180.347C117.72 180.201 117.669 180.017 117.669 179.795V175.997Z" fill="#A0A0A0"/>
</g>
<defs>
<clipPath id="clip0_1_1422">
<rect width="170.35" height="215.38" fill="white" transform="translate(0.5)"/>
</clipPath>
</defs>
</svg>
